<svg xmlns="http://www.w3.org/2000/svg" version="1.1" xmlns:xlink="http://www.w3.org/1999/xlink" xmlns:svgjs="http://svgjs.com/svgjs" width="1440" height="250" preserveAspectRatio="none" viewBox="0 0 1440 250"><g mask="url(&quot;#SvgjsMask1006&quot;)" fill="none"><rect width="1440" height="250" x="0" y="0" fill="rgba(145, 187, 231, 1)"></rect><path d="M26 250L276 0L363 0L113 250z" fill="url(#SvgjsLinearGradient1007)"></path><path d="M252.60000000000002 250L502.6 0L690.1 0L440.1 250z" fill="url(#SvgjsLinearGradient1007)"></path><path d="M488.20000000000005 250L738.2 0L811.7 0L561.7 250z" fill="url(#SvgjsLinearGradient1007)"></path><path d="M724.8000000000001 250L974.8000000000001 0L1316.8000000000002 0L1066.8000000000002 250z" fill="url(#SvgjsLinearGradient1007)"></path><path d="M1405 250L1155 0L1063.5 0L1313.5 250z" fill="url(#SvgjsLinearGradient1008)"></path><path d="M1197.4 250L947.4000000000001 0L734.4000000000001 0L984.4000000000001 250z" fill="url(#SvgjsLinearGradient1008)"></path><path d="M938.8 250L688.8 0L559.8 0L809.8 250z" fill="url(#SvgjsLinearGradient1008)"></path><path d="M685.1999999999999 250L435.19999999999993 0L144.19999999999993 0L394.19999999999993 250z" fill="url(#SvgjsLinearGradient1008)"></path><path d="M1281.3896347498815 250L1440 91.3896347498814L1440 250z" fill="url(#SvgjsLinearGradient1007)"></path><path d="M0 250L158.6103652501186 250L 0 91.3896347498814z" fill="url(#SvgjsLinearGradient1008)"></path></g><defs><mask id="SvgjsMask1006"><rect width="1440" height="250" fill="#ffffff"></rect></mask><linearGradient x1="0%" y1="100%" x2="100%" y2="0%" id="SvgjsLinearGradient1007"><stop stop-color="rgba(15, 70, 185, 0.2)" offset="0"></stop><stop stop-opacity="0" stop-color="rgba(15, 70, 185, 0.2)" offset="0.66"></stop></linearGradient><linearGradient x1="100%" y1="100%" x2="0%" y2="0%" id="SvgjsLinearGradient1008"><stop stop-color="rgba(15, 70, 185, 0.2)" offset="0"></stop><stop stop-opacity="0" stop-color="rgba(15, 70, 185, 0.2)" offset="0.66"></stop></linearGradient></defs></svg>