<svg id="Layer_1" data-name="Layer 1" xmlns="http://www.w3.org/2000/svg" viewBox="0 0 512 512"><title>hospital-flat</title><rect width="512" height="512" fill="#80cbc4"/><g id="_3" data-name="3"><path d="M400.1,283.32V262.41a7.86,7.86,0,0,0-7.86-7.86H326.12v28.77Z" fill="#fff"/><rect x="326.12" y="295.22" width="73.98" height="25.44" fill="#fff"/><rect x="326.12" y="332.57" width="73.98" height="23.48" fill="#fff"/><path d="M326.12,367.95V400h66.12a7.87,7.87,0,0,0,7.86-7.86V367.95Z" fill="#fff"/><path d="M111.9,283.32V262.41a7.86,7.86,0,0,1,7.86-7.86h66.13v28.77Z" fill="#fff"/><rect x="111.9" y="295.22" width="73.99" height="25.44" fill="#fff"/><rect x="111.9" y="332.57" width="73.99" height="23.48" fill="#fff"/><path d="M185.89,367.95V400H119.76a7.87,7.87,0,0,1-7.86-7.86V367.95Z" fill="#fff"/><path d="M263.91,186.64H248.07a6.35,6.35,0,0,1-6.34-6.34v-16.7H225a6.36,6.36,0,0,1-6.35-6.35V141.41A6.37,6.37,0,0,1,225,135h16.71v-16.7a6.35,6.35,0,0,1,6.34-6.34h15.84a6.35,6.35,0,0,1,6.35,6.34V135H287a6.35,6.35,0,0,1,6.34,6.36v15.83a6.35,6.35,0,0,1-6.34,6.35H270.27v16.7A6.35,6.35,0,0,1,263.91,186.64ZM226,140.83a.83.83,0,0,0-.84.83V157a.84.84,0,0,0,.84.83h21.48V179.3a.8.8,0,0,0,.81.83h15.36a.83.83,0,0,0,.82-.83V157.82H286a.83.83,0,0,0,.82-.83V141.66a.83.83,0,0,0-.82-.83h-21.5V119.34a.84.84,0,0,0-.82-.83H248.32a.82.82,0,0,0-.81.83v21.48Z" fill="#fff"/><path d="M322.19,192.15H189.09a3.93,3.93,0,0,0-3.94,3.93V201a3.93,3.93,0,0,0,3.94,3.93h4.71V392.14a7.87,7.87,0,0,0,7.86,7.86H310.34a7.86,7.86,0,0,0,7.86-7.86V204.92h4a3.93,3.93,0,0,0,3.94-3.93v-4.91A3.92,3.92,0,0,0,322.19,192.15Zm-61.39,106h-9.58a3.19,3.19,0,0,1-3.21-3.19v-9.59a3.2,3.2,0,0,1,3.21-3.2h9.58a3.2,3.2,0,0,1,3.19,3.2v9.59A3.19,3.19,0,0,1,260.8,298.12Zm3.19,22.8v9.59a3.19,3.19,0,0,1-3.19,3.19h-9.58a3.2,3.2,0,0,1-3.21-3.19v-9.59a3.2,3.2,0,0,1,3.21-3.19h9.58A3.19,3.19,0,0,1,264,320.92Zm-3.19-58.39h-9.58a3.2,3.2,0,0,1-3.21-3.19v-9.59a3.2,3.2,0,0,1,3.21-3.2h9.58a3.2,3.2,0,0,1,3.19,3.2v9.59A3.19,3.19,0,0,1,260.8,262.54Zm0-35.58h-9.58a3.2,3.2,0,0,1-3.21-3.19v-9.59a3.2,3.2,0,0,1,3.21-3.2h9.58a3.2,3.2,0,0,1,3.19,3.2v9.59A3.19,3.19,0,0,1,260.8,227ZM225.09,330.51a3.2,3.2,0,0,1-3.21,3.19H212.3a3.21,3.21,0,0,1-3.21-3.19v-9.59a3.21,3.21,0,0,1,3.21-3.19h9.58a3.2,3.2,0,0,1,3.21,3.19Zm0-35.58a3.19,3.19,0,0,1-3.21,3.19H212.3a3.2,3.2,0,0,1-3.21-3.19v-9.59a3.21,3.21,0,0,1,3.21-3.2h9.58a3.2,3.2,0,0,1,3.21,3.2Zm0-35.58a3.19,3.19,0,0,1-3.21,3.19H212.3a3.2,3.2,0,0,1-3.21-3.19v-9.59a3.21,3.21,0,0,1,3.21-3.2h9.58a3.2,3.2,0,0,1,3.21,3.2Zm0-35.58a3.2,3.2,0,0,1-3.21,3.19H212.3a3.21,3.21,0,0,1-3.21-3.19v-9.59a3.21,3.21,0,0,1,3.21-3.2h9.58a3.2,3.2,0,0,1,3.21,3.2Zm48.24,168a3.92,3.92,0,0,1-3.94,3.93H242.61a3.93,3.93,0,0,1-3.94-3.93V356a3.92,3.92,0,0,1,3.94-3.93h26.77a3.91,3.91,0,0,1,3.94,3.93Zm29.58-61.26a3.2,3.2,0,0,1-3.19,3.19h-9.59a3.19,3.19,0,0,1-3.19-3.19v-9.59a3.19,3.19,0,0,1,3.19-3.19h9.59a3.2,3.2,0,0,1,3.19,3.19Zm0-35.58a3.2,3.2,0,0,1-3.19,3.19h-9.59a3.19,3.19,0,0,1-3.19-3.19v-9.59a3.2,3.2,0,0,1,3.19-3.2h9.59a3.21,3.21,0,0,1,3.19,3.2Zm0-35.58a3.2,3.2,0,0,1-3.19,3.19h-9.59a3.19,3.19,0,0,1-3.19-3.19v-9.59a3.2,3.2,0,0,1,3.19-3.2h9.59a3.21,3.21,0,0,1,3.19,3.2Zm0-35.58a3.2,3.2,0,0,1-3.19,3.19h-9.59a3.19,3.19,0,0,1-3.19-3.19v-9.59a3.2,3.2,0,0,1,3.19-3.2h9.59a3.21,3.21,0,0,1,3.19,3.2Z" fill="#fff"/></g></svg>